<svg xmlns="http://www.w3.org/2000/svg" xmlns:xlink="http://www.w3.org/1999/xlink" width="250" zoomAndPan="magnify" viewBox="0 0 187.5 37.5" height="50" preserveAspectRatio="xMidYMid meet" version="1.0"><defs><g/><clipPath id="3d599e75fb"><path d="M 49.117188 25.160156 L 54.296875 25.160156 L 54.296875 30.339844 L 49.117188 30.339844 Z M 49.117188 25.160156 " clip-rule="nonzero"/></clipPath></defs><g clip-path="url(#3d599e75fb)"><path fill="#800000" d="M 54.03125 27.617188 C 54.03125 27.941406 53.96875 28.253906 53.84375 28.558594 C 53.71875 28.859375 53.542969 29.125 53.3125 29.355469 C 53.082031 29.585938 52.816406 29.761719 52.515625 29.886719 C 52.210938 30.011719 51.898438 30.074219 51.574219 30.074219 C 51.246094 30.074219 50.933594 30.011719 50.632812 29.886719 C 50.332031 29.761719 50.066406 29.585938 49.835938 29.355469 C 49.605469 29.125 49.425781 28.859375 49.304688 28.558594 C 49.179688 28.253906 49.117188 27.941406 49.117188 27.617188 C 49.117188 27.289062 49.179688 26.976562 49.304688 26.675781 C 49.425781 26.375 49.605469 26.109375 49.835938 25.878906 C 50.066406 25.648438 50.332031 25.46875 50.632812 25.347656 C 50.933594 25.222656 51.246094 25.160156 51.574219 25.160156 C 51.898438 25.160156 52.210938 25.222656 52.515625 25.347656 C 52.816406 25.46875 53.082031 25.648438 53.3125 25.878906 C 53.542969 26.109375 53.71875 26.375 53.84375 26.675781 C 53.96875 26.976562 54.03125 27.289062 54.03125 27.617188 Z M 54.03125 27.617188 " fill-opacity="1" fill-rule="nonzero"/></g><g fill="#52b43e" fill-opacity="1"><g transform="translate(0.986842, 30.517449)"><g><path d="M 1.1875 0 L 1.1875 -26.8125 L 6.53125 -26.8125 L 6.53125 -17.234375 L 9.046875 -17.234375 L 9.046875 -26.8125 L 14.390625 -26.8125 L 14.390625 0 L 9.046875 0 L 9.046875 -12.171875 L 6.53125 -12.171875 L 6.53125 0 Z M 1.1875 0 "/></g></g></g><g fill="#52b43e" fill-opacity="1"><g transform="translate(16.561547, 30.517449)"><g><path d="M 1.1875 -26.8125 L 8.453125 -26.8125 C 10.410156 -26.8125 11.832031 -26.332031 12.71875 -25.375 C 13.601562 -24.414062 14.046875 -22.859375 14.046875 -20.703125 L 14.046875 -19.515625 C 14.046875 -16.953125 13.128906 -15.421875 11.296875 -14.921875 C 12.421875 -14.628906 13.210938 -13.953125 13.671875 -12.890625 C 14.128906 -11.828125 14.359375 -10.421875 14.359375 -8.671875 C 14.359375 -5.828125 13.929688 -3.671875 13.078125 -2.203125 C 12.222656 -0.734375 10.679688 0 8.453125 0 L 1.1875 0 Z M 7.53125 -16.734375 C 7.976562 -16.734375 8.285156 -16.90625 8.453125 -17.25 C 8.617188 -17.59375 8.703125 -18.078125 8.703125 -18.703125 L 8.703125 -21.390625 C 8.703125 -22.265625 8.320312 -22.703125 7.5625 -22.703125 L 6.4375 -22.703125 L 6.4375 -16.734375 Z M 6.96875 -4.71875 C 8.351562 -4.71875 9.046875 -5.382812 9.046875 -6.71875 L 9.046875 -10.046875 C 9.046875 -10.859375 8.925781 -11.472656 8.6875 -11.890625 C 8.445312 -12.304688 8.03125 -12.515625 7.4375 -12.515625 L 6.4375 -12.515625 L 6.4375 -4.75 Z M 6.96875 -4.71875 "/></g></g></g><g fill="#52b43e" fill-opacity="1"><g transform="translate(31.512016, 30.517449)"><g><path d="M 7.5625 0.25 C 5.125 0.25 3.363281 -0.351562 2.28125 -1.5625 C 1.195312 -2.769531 0.65625 -4.71875 0.65625 -7.40625 L 0.65625 -10.015625 L 5.9375 -10.015625 L 5.9375 -6.6875 C 5.9375 -5.351562 6.363281 -4.6875 7.21875 -4.6875 C 7.6875 -4.6875 8.015625 -4.828125 8.203125 -5.109375 C 8.390625 -5.390625 8.484375 -5.863281 8.484375 -6.53125 C 8.484375 -7.394531 8.378906 -8.113281 8.171875 -8.6875 C 7.960938 -9.257812 7.695312 -9.738281 7.375 -10.125 C 7.0625 -10.507812 6.488281 -11.109375 5.65625 -11.921875 L 3.34375 -14.234375 C 1.550781 -15.984375 0.65625 -17.921875 0.65625 -20.046875 C 0.65625 -22.328125 1.179688 -24.066406 2.234375 -25.265625 C 3.285156 -26.460938 4.820312 -27.0625 6.84375 -27.0625 C 9.25 -27.0625 10.984375 -26.421875 12.046875 -25.140625 C 13.109375 -23.867188 13.640625 -21.867188 13.640625 -19.140625 L 8.171875 -19.140625 L 8.140625 -20.984375 C 8.140625 -21.335938 8.039062 -21.617188 7.84375 -21.828125 C 7.65625 -22.035156 7.382812 -22.140625 7.03125 -22.140625 C 6.613281 -22.140625 6.300781 -22.023438 6.09375 -21.796875 C 5.882812 -21.566406 5.78125 -21.253906 5.78125 -20.859375 C 5.78125 -19.984375 6.28125 -19.078125 7.28125 -18.140625 L 10.390625 -15.140625 C 11.117188 -14.429688 11.722656 -13.757812 12.203125 -13.125 C 12.679688 -12.488281 13.066406 -11.738281 13.359375 -10.875 C 13.648438 -10.007812 13.796875 -8.988281 13.796875 -7.8125 C 13.796875 -5.164062 13.3125 -3.160156 12.34375 -1.796875 C 11.375 -0.429688 9.78125 0.25 7.5625 0.25 Z M 7.5625 0.25 "/></g></g></g><g fill="#52b43e" fill-opacity="1"><g transform="translate(62.238486, 26.792152)"><g><path d="M 16.109375 -13.828125 L 16.109375 -2.3125 C 16.109375 0.21875 15.445312 2.097656 14.125 3.328125 C 12.8125 4.566406 10.890625 5.1875 8.359375 5.1875 C 7.015625 5.1875 5.742188 5.023438 4.546875 4.703125 C 3.347656 4.378906 2.351562 3.910156 1.5625 3.296875 L 3.15625 0.40625 C 3.738281 0.882812 4.472656 1.265625 5.359375 1.546875 C 6.253906 1.835938 7.148438 1.984375 8.046875 1.984375 C 9.429688 1.984375 10.453125 1.671875 11.109375 1.046875 C 11.773438 0.421875 12.109375 -0.523438 12.109375 -1.796875 L 12.109375 -2.390625 C 11.054688 -1.242188 9.597656 -0.671875 7.734375 -0.671875 C 6.460938 -0.671875 5.300781 -0.945312 4.25 -1.5 C 3.195312 -2.0625 2.363281 -2.847656 1.75 -3.859375 C 1.132812 -4.867188 0.828125 -6.03125 0.828125 -7.34375 C 0.828125 -8.664062 1.132812 -9.832031 1.75 -10.84375 C 2.363281 -11.851562 3.195312 -12.632812 4.25 -13.1875 C 5.300781 -13.75 6.460938 -14.03125 7.734375 -14.03125 C 9.742188 -14.03125 11.269531 -13.375 12.3125 -12.0625 L 12.3125 -13.828125 Z M 8.53125 -3.953125 C 9.59375 -3.953125 10.460938 -4.265625 11.140625 -4.890625 C 11.816406 -5.515625 12.15625 -6.332031 12.15625 -7.34375 C 12.15625 -8.363281 11.816406 -9.1875 11.140625 -9.8125 C 10.460938 -10.4375 9.59375 -10.75 8.53125 -10.75 C 7.46875 -10.75 6.59375 -10.4375 5.90625 -9.8125 C 5.226562 -9.1875 4.890625 -8.363281 4.890625 -7.34375 C 4.890625 -6.332031 5.226562 -5.515625 5.90625 -4.890625 C 6.59375 -4.265625 7.46875 -3.953125 8.53125 -3.953125 Z M 8.53125 -3.953125 "/></g></g></g><g fill="#52b43e" fill-opacity="1"><g transform="translate(80.223122, 26.792152)"><g><path d="M 5.6875 -12 C 6.164062 -12.664062 6.8125 -13.171875 7.625 -13.515625 C 8.4375 -13.859375 9.375 -14.03125 10.4375 -14.03125 L 10.4375 -10.328125 C 9.988281 -10.367188 9.6875 -10.390625 9.53125 -10.390625 C 8.382812 -10.390625 7.484375 -10.066406 6.828125 -9.421875 C 6.179688 -8.773438 5.859375 -7.8125 5.859375 -6.53125 L 5.859375 0 L 1.84375 0 L 1.84375 -13.828125 L 5.6875 -13.828125 Z M 5.6875 -12 "/></g></g></g><g fill="#52b43e" fill-opacity="1"><g transform="translate(91.296508, 26.792152)"><g><path d="M 15.390625 -6.859375 C 15.390625 -6.804688 15.363281 -6.445312 15.3125 -5.78125 L 4.859375 -5.78125 C 5.046875 -4.925781 5.488281 -4.25 6.1875 -3.75 C 6.894531 -3.25 7.769531 -3 8.8125 -3 C 9.53125 -3 10.164062 -3.109375 10.71875 -3.328125 C 11.28125 -3.546875 11.800781 -3.882812 12.28125 -4.34375 L 14.421875 -2.03125 C 13.117188 -0.539062 11.21875 0.203125 8.71875 0.203125 C 7.15625 0.203125 5.773438 -0.0976562 4.578125 -0.703125 C 3.378906 -1.316406 2.453125 -2.160156 1.796875 -3.234375 C 1.148438 -4.316406 0.828125 -5.546875 0.828125 -6.921875 C 0.828125 -8.265625 1.144531 -9.476562 1.78125 -10.5625 C 2.425781 -11.65625 3.3125 -12.503906 4.4375 -13.109375 C 5.5625 -13.722656 6.816406 -14.03125 8.203125 -14.03125 C 9.554688 -14.03125 10.78125 -13.738281 11.875 -13.15625 C 12.96875 -12.570312 13.828125 -11.734375 14.453125 -10.640625 C 15.078125 -9.554688 15.390625 -8.296875 15.390625 -6.859375 Z M 8.21875 -11 C 7.3125 -11 6.550781 -10.738281 5.9375 -10.21875 C 5.320312 -9.707031 4.945312 -9.007812 4.8125 -8.125 L 11.625 -8.125 C 11.476562 -9 11.097656 -9.695312 10.484375 -10.21875 C 9.867188 -10.738281 9.113281 -11 8.21875 -11 Z M 8.21875 -11 "/></g></g></g><g fill="#52b43e" fill-opacity="1"><g transform="translate(107.508364, 26.792152)"><g><path d="M 15.390625 -6.859375 C 15.390625 -6.804688 15.363281 -6.445312 15.3125 -5.78125 L 4.859375 -5.78125 C 5.046875 -4.925781 5.488281 -4.25 6.1875 -3.75 C 6.894531 -3.25 7.769531 -3 8.8125 -3 C 9.53125 -3 10.164062 -3.109375 10.71875 -3.328125 C 11.28125 -3.546875 11.800781 -3.882812 12.28125 -4.34375 L 14.421875 -2.03125 C 13.117188 -0.539062 11.21875 0.203125 8.71875 0.203125 C 7.15625 0.203125 5.773438 -0.0976562 4.578125 -0.703125 C 3.378906 -1.316406 2.453125 -2.160156 1.796875 -3.234375 C 1.148438 -4.316406 0.828125 -5.546875 0.828125 -6.921875 C 0.828125 -8.265625 1.144531 -9.476562 1.78125 -10.5625 C 2.425781 -11.65625 3.3125 -12.503906 4.4375 -13.109375 C 5.5625 -13.722656 6.816406 -14.03125 8.203125 -14.03125 C 9.554688 -14.03125 10.78125 -13.738281 11.875 -13.15625 C 12.96875 -12.570312 13.828125 -11.734375 14.453125 -10.640625 C 15.078125 -9.554688 15.390625 -8.296875 15.390625 -6.859375 Z M 8.21875 -11 C 7.3125 -11 6.550781 -10.738281 5.9375 -10.21875 C 5.320312 -9.707031 4.945312 -9.007812 4.8125 -8.125 L 11.625 -8.125 C 11.476562 -9 11.097656 -9.695312 10.484375 -10.21875 C 9.867188 -10.738281 9.113281 -11 8.21875 -11 Z M 8.21875 -11 "/></g></g></g><g fill="#52b43e" fill-opacity="1"><g transform="translate(123.720221, 26.792152)"><g><path d="M 10.25 -14.03125 C 11.96875 -14.03125 13.351562 -13.515625 14.40625 -12.484375 C 15.457031 -11.460938 15.984375 -9.941406 15.984375 -7.921875 L 15.984375 0 L 11.984375 0 L 11.984375 -7.296875 C 11.984375 -8.390625 11.738281 -9.207031 11.25 -9.75 C 10.769531 -10.289062 10.078125 -10.5625 9.171875 -10.5625 C 8.160156 -10.5625 7.351562 -10.25 6.75 -9.625 C 6.15625 -9 5.859375 -8.070312 5.859375 -6.84375 L 5.859375 0 L 1.84375 0 L 1.84375 -13.828125 L 5.6875 -13.828125 L 5.6875 -12.203125 C 6.21875 -12.785156 6.875 -13.234375 7.65625 -13.546875 C 8.445312 -13.867188 9.3125 -14.03125 10.25 -14.03125 Z M 10.25 -14.03125 "/></g></g></g></svg>